PathFileType	4	(X/Y/Z)	..\data\2014022\dynamic\2014022_C5_02.trc
DataRate	CameraRate	NumFrames	NumMarkers	Units	OrigDataRate	OrigDataStartFrame	OrigNumFrames
100.000000	100.000000	4	52	mm	100.000000	108	145
Frame#	Time	L_IAS			L_IPS			R_IPS			R_IAS			L_FTC			L_FLE			L_FME			L_FAX			L_TTC			L_FAL			L_TAM			L_FCC			L_FM1			L_FM2			L_FM5			R_FTC			R_FLE			R_FME			R_FAX			R_TTC			R_FAL			R_TAM			R_FCC			R_FM1			R_FM2			R_FM5			CV7			TV10			SXS			SJN			L_SIA			L_SRS			L_SAA			L_SAE			L_HLE			L_HME			L_UOA			L_RSP			L_UHE			L_HM2			L_HM5			R_SIA			R_SRS			R_SAA			R_SAE			R_HLE			R_HME			R_UOA			R_RSP			R_UHE			R_HM2			R_HM5			
		X1	Y1	Z1	X2	Y2	Z2	X3	Y3	Z3	X4	Y4	Z4	X5	Y5	Z5	X6	Y6	Z6	X7	Y7	Z7	X8	Y8	Z8	X9	Y9	Z9	X10	Y10	Z10	X11	Y11	Z11	X12	Y12	Z12	X13	Y13	Z13	X14	Y14	Z14	X15	Y15	Z15	X16	Y16	Z16	X17	Y17	Z17	X18	Y18	Z18	X19	Y19	Z19	X20	Y20	Z20	X21	Y21	Z21	X22	Y22	Z22	X23	Y23	Z23	X24	Y24	Z24	X25	Y25	Z25	X26	Y26	Z26	X27	Y27	Z27	X28	Y28	Z28	X29	Y29	Z29	X30	Y30	Z30	X31	Y31	Z31	X32	Y32	Z32	X33	Y33	Z33	X34	Y34	Z34	X35	Y35	Z35	X36	Y36	Z36	X37	Y37	Z37	X38	Y38	Z38	X39	Y39	Z39	X40	Y40	Z40	X41	Y41	Z41	X42	Y42	Z42	X43	Y43	Z43	X44	Y44	Z44	X45	Y45	Z45	X46	Y46	Z46	X47	Y47	Z47	X48	Y48	Z48	X49	Y49	Z49	X50	Y50	Z50	X51	Y51	Z51	X52	Y52	Z52	

109	1.08	1494.408203125	943.170593261719	-382.3138122558594	1294.175170898438	946.5480957031252	-325.0984191894532	1291.16748046875	938.3652343750002	-213.586654663086	1470.812377929688	913.730651855469	-140.5233001708985	1430.43994140625	888.8128051757815	-459.2666320800782	1547.57958984375	465.6817321777345	-388.7680053710939	1509.417236328125	459.0370483398439	-259.8131408691407	1525.830444335938	411.4360656738282	-393.5495605468751	1584.5615234375	407.0388793945314	-328.0782470703126	1516.594482421875	65.52171325683595	-329.8731994628907	1531.907958984375	82.1019973754883	-245.5511779785157	1478.847412109375	18.16853713989258	-284.7806091308594	1661.2216796875	14.44314670562744	-242.3720703125001	1669.901733398438	33.8051986694336	-302.4385375976563	1625.841186523438	21.25897026062012	-353.2749023437501	1389.781127929688	837.2977294921877	-87.11343383789064	1407.948852539063	430.8021850585939	-111.8740768432617	1452.729125976563	414.8858947753907	-243.2222747802735	1368.472778320313	405.7720947265626	-109.6811904907227	1414.108032226563	348.8011169433594	-152.6244201660157	1084.009521484375	231.473617553711	-164.5088348388672	1105.80126953125	214.7913513183594	-247.0380249023438	1034.00634765625	240.4117279052735	-216.8130035400391	1093.347045898438	79.52927398681642	-250.9959564208985	1107.145141601563	76.22525024414064	-193.5910797119141	1074.356079101563	102.9893341064453	-147.23095703125	1350.862670898438	1417.479248046875	-299.7408142089844	1271.538208007813	1204.048217773438	-274.5885925292969	1507.534423828125	1128.122192382813	-276.5519104003907	1467.999267578125	1348.262939453125	-295.8472595214844	1263.419677734375	1228.9853515625	-359.3067016601563	1308.624877929688	1366.32861328125	-357.4346923828126	1340.593994140625	1367.865478515625	-427.9047241210939	1390.2099609375	1346.99658203125	-476.9595642089845	1278.563842773438	1054.464965820313	-519.5102539062501	1294.487182617188	1038.742065429688	-429.1246337890626	1264.55908203125	1036.174072265625	-479.6481933593751	1289.2353515625	799.4212036132815	-520.3287963867189	1229.898071289063	837.0742187500002	-552.6860961914064	1266.546142578125	716.4072265625001	-541.1990356445314	1181.202026367188	774.7302856445315	-549.9017944335939	1266.188232421875	1241.375	-188.3122711181641	1313.32470703125	1379.130493164063	-218.3098602294922	1350.795043945313	1385.748413085938	-142.5830078125	1401.102905273438	1388.311645507813	-112.8940200805664	1390.795043945313	1068.734741210938	-46.22154235839844	1396.1884765625	1053.573364257813	-128.112289428711	1384.984375	1038.829956054688	-78.19046020507814	1572.671508789063	889.840026855469	-36.2472267150879	1504.293090820313	863.6795043945315	-10.65671920776367	1626.627197265625	822.5775146484377	-13.68910503387452	1530.325561523438	783.6107177734377	-15.88413715362549	
110	1.09	1509.324340820313	946.0769653320315	-383.0426940917969	1309.572021484375	949.3383789062502	-325.9209289550782	1306.38525390625	941.0638427734377	-215.1754302978516	1486.058959960938	917.7338867187502	-140.3105621337891	1444.676391601563	891.2176513671877	-459.9232177734376	1551.789428710938	465.3794555664064	-389.5259094238282	1514.641235351563	459.3462219238282	-259.9981689453126	1528.676025390625	411.4781494140626	-393.8694152832032	1588.502319335938	406.1346435546876	-329.1269226074219	1516.650756835938	65.81493377685548	-329.9489746093751	1532.077880859375	82.40836334228517	-245.5764160156251	1479.012939453125	18.23605155944825	-284.7683410644532	1661.075317382813	15.38312911987305	-242.3469848632813	1669.845947265625	34.52339553833009	-302.5022583007813	1625.879028320313	21.79469871520996	-353.4243774414063	1404.951293945313	840.7651367187502	-88.67994689941408	1438.74755859375	434.648651123047	-111.6939392089844	1484.057495117188	419.5231018066407	-243.1905975341797	1400.203125	409.2563781738282	-109.9290542602539	1446.944091796875	352.9888000488282	-152.2922821044922	1118.724365234375	231.1641845703126	-163.9937591552735	1141.155883789063	213.5697937011719	-246.3157501220704	1067.760620117188	236.6968994140626	-216.6564483642579	1136.0263671875	78.28765106201173	-245.2811584472657	1149.468505859375	78.16049957275392	-187.8043365478516	1115.544799804688	105.0122985839844	-142.5507965087891	1367.159790039063	1420.470947265625	-299.9581298828126	1287.173828125	1207.241943359375	-275.2353210449219	1523.061157226563	1130.568969726563	-276.1052551269532	1484.31005859375	1350.823974609375	-295.8262329101563	1279.53076171875	1232.083862304688	-359.9132385253907	1324.6435546875	1369.440551757813	-357.6904602050782	1357.045043945313	1370.77734375	-428.3919982910157	1406.913330078125	1349.653930664063	-476.9785766601564	1301.72265625	1054.894165039063	-521.0160522460939	1316.350708007813	1039.515502929688	-430.1994018554689	1287.034423828125	1035.677612304688	-481.184295654297	1321.9765625	799.956481933594	-519.9980468750001	1261.745727539063	834.921813964844	-553.9983520507814	1303.7158203125	716.3864135742189	-541.2406005859376	1215.9501953125	770.3294067382815	-552.1593017578126	1281.975219726563	1244.652954101563	-188.73095703125	1329.405639648438	1382.394653320313	-218.5951538085938	1366.853393554688	1388.82861328125	-142.9610443115235	1417.114379882813	1391.203002929688	-113.1531982421875	1404.781005859375	1072.265258789063	-46.6006088256836	1410.276977539063	1057.095458984375	-128.4334564208985	1398.46923828125	1042.9716796875	-78.67413330078126	1579.022338867188	886.5691528320315	-33.16478347778321	1509.06982421875	862.828796386719	-10.03661346435547	1629.249633789063	815.7185668945315	-11.1733980178833	1530.989624023438	781.7624511718752	-17.29231452941895	
111	1.1	1524.222778320313	948.7380371093752	-383.6954040527344	1325.01416015625	952.1846923828127	-326.8653259277344	1321.585083007813	943.9803466796877	-216.898178100586	1501.2763671875	922.0888671875002	-140.0191650390625	1458.777709960938	893.2673339843752	-460.4252929687501	1555.047973632813	465.0494995117189	-390.3409729003907	1519.002075195313	459.4737548828126	-260.1338500976563	1530.545043945313	411.4445190429689	-394.195770263672	1591.640014648438	405.2342834472657	-330.2832641601563	1516.537231445313	66.08309173583986	-330.0574951171876	1532.215698242188	82.67788696289064	-245.6425170898438	1479.078735351563	18.27102088928223	-284.7208251953126	1660.953735351563	16.29463005065918	-242.3836059570313	1669.7109375	35.12662887573243	-302.6600036621094	1625.837646484375	22.12266540527344	-353.5750732421876	1419.450073242188	844.6174926757815	-90.31813812255861	1469.266723632813	439.029022216797	-111.8994903564453	1514.716064453125	425.1055603027345	-243.5094299316407	1431.58251953125	413.0774230957032	-110.6065444946289	1479.724731445313	357.8044128417969	-152.360824584961	1154.351318359375	229.0303802490235	-163.4712371826172	1177.41357421875	210.8108215332032	-245.5947265625001	1102.359619140625	230.7787322998047	-216.3278350830079	1180.704833984375	75.89807128906251	-239.8543853759766	1193.912841796875	79.2322463989258	-182.3789215087891	1158.737182617188	105.5500259399414	-138.10888671875	1383.220825195313	1423.462036132813	-300.1072387695313	1302.693603515625	1210.37841796875	-275.8644104003907	1538.570434570313	1133.316772460938	-275.7377014160157	1500.439697265625	1353.488403320313	-295.8064880371094	1295.502319335938	1235.136108398438	-360.4519958496094	1340.36767578125	1372.553344726563	-357.8412170410157	1373.104248046875	1373.724609375	-428.7753906250001	1423.147583007813	1352.494873046875	-476.934539794922	1324.760009765625	1055.63232421875	-522.5498657226564	1338.109252929688	1040.520141601563	-431.3450317382814	1309.421997070313	1035.27294921875	-482.7696228027345	1355.5703125	801.2843017578127	-519.8798828125001	1294.300048828125	833.2151489257815	-555.1928100585939	1342.038330078125	717.2821655273439	-541.4380493164064	1251.839721679688	766.2372436523439	-554.0102539062501	1297.68408203125	1247.84423828125	-189.1688079833985	1345.275634765625	1385.583984375	-218.8463439941407	1382.715698242188	1391.8642578125	-143.2946929931641	1432.873413085938	1394.079711914063	-113.3884658813477	1418.557983398438	1075.927368164063	-46.84779739379884	1424.333251953125	1060.712158203125	-128.6072692871094	1411.806030273438	1047.26318359375	-79.0719680786133	1584.8212890625	883.952819824219	-29.45211982727051	1513.556518554688	862.627380371094	-9.226491928100588	1631.24267578125	809.5935058593752	-8.34905529022217	1531.524291992188	780.7498779296877	-18.85630416870118	
112	1.11	1539.138061523438	951.1235351562502	-384.2673339843751	1340.52392578125	955.0516357421877	-327.8495788574219	1336.835815429688	947.0317993164065	-218.6079864501954	1516.548461914063	926.649353027344	-139.7359924316407	1472.812866210938	894.9942626953127	-460.7514648437501	1557.5947265625	464.7385864257814	-391.1844787597657	1522.549926757813	459.4822692871095	-260.2605285644532	1531.720458984375	411.3977661132814	-394.544891357422	1594.120483398438	404.3827514648439	-331.4674072265626	1516.310424804688	66.33538055419923	-330.1863708496094	1532.349853515625	82.92016601562501	-245.7409820556641	1479.056762695313	18.31210327148438	-284.6501770019532	1660.878662109375	17.0720386505127	-242.468002319336	1669.548828125	35.54779434204102	-302.8881835937501	1625.7373046875	22.23493194580078	-353.7359313964844	1433.480834960938	848.660095214844	-91.91513061523439	1499.466796875	443.7935485839845	-112.4810867309571	1544.701049804688	431.4268798828126	-244.1617279052735	1462.56591796875	417.099822998047	-111.6601104736328	1512.355590820313	363.1018981933594	-152.8057708740235	1190.827026367188	225.1107940673829	-162.8847961425782	1214.480102539063	206.5862274169922	-244.8382568359376	1137.825317382813	222.8336791992188	-215.7570190429688	1226.961059570313	72.55733489990236	-234.8618164062501	1240.002563476563	79.41698455810548	-177.4753570556641	1203.518920898438	104.6222915649414	-134.0224914550782	1399.076049804688	1426.380981445313	-300.2199707031251	1318.124267578125	1213.394897460938	-276.4923095703126	1554.093383789063	1136.328979492188	-275.4801635742188	1516.413818359375	1356.196533203125	-295.8136901855469	1311.370239257813	1238.078735351563	-360.9516601562501	1355.841918945313	1375.59228515625	-357.9256286621094	1388.811889648438	1376.633422851563	-429.0788879394532	1438.957275390625	1355.453735351563	-476.8621826171876	1347.59033203125	1056.653442382813	-524.1335449218751	1359.71435546875	1041.736572265625	-432.5950317382814	1331.695434570313	1034.936401367188	-484.4354553222657	1389.905883789063	803.5104980468752	-520.0751953125001	1327.466430664063	832.0412597656252	-556.2881469726564	1381.358642578125	719.2269287109376	-541.8397216796876	1288.77978515625	762.6149291992189	-555.3780517578126	1313.33740234375	1250.882934570313	-189.6511840820313	1360.96484375	1388.620849609375	-219.096176147461	1398.402465820313	1394.786376953125	-143.610092163086	1448.401123046875	1396.880981445313	-113.6236267089844	1432.108154296875	1079.644165039063	-46.98277664184571	1438.418823242188	1064.356323242188	-128.6546020507813	1424.99365234375	1051.61572265625	-79.40431976318361	1590.12939453125	882.0108032226565	-25.06474876403809	1517.827026367188	863.0347900390627	-8.222557067871096	1632.737915039063	804.2886962890627	-5.088849067687989	1532.166625976563	780.551696777344	-20.45806121826172	
